# File created by Blade
# Date/Time:  Tue Jan 27 20:07:51 2015
# Frame Rate: 120.000 fps
#------------------------------------------------------
:FULLY-SPECIFIED
:DEGREES
3845
root 4.991582 32.704853 -5.879643 13.200181 -15.092745 -5.738133
Spine 6.763570 12.806491 -2.976665
Head 13.944332 -6.625387 6.333041
LeftShoulder -11.301502 -8.356824 30.883105
LeftArm -1.466285 -28.445210 -79.287862
LeftForeArm -47.191694 -0.000000 110.084191
LeftHand 11.213314 -0.000000 -46.431161
LeftHandThumb1 -26.253704 0.000000 33.147579
RightShoulder -12.380452 -9.862261 -22.945823
RightArm 22.270248 -34.182077 85.924518
RightForeArm -20.018154 -0.000000 24.630561
RightHand 17.663724 -0.000000 0.814438
RightHandThumb1 -24.326973 -0.000000 -32.862282
LeftUpLeg -6.230382 5.231820 -2.561687
LeftLeg -4.815837 -0.000000 0.000000
LeftFoot -10.655826 9.675981 -16.531653
LeftToeBase 22.751363 -0.000000 -0.000000
RightUpLeg -14.407388 2.784571 7.757617
RightLeg 16.095873 -0.000000 -0.000000
RightFoot -20.558011 -3.362787 26.989426
RightToeBase 5.932155 -0.000000 -0.000000
3846
root 4.968789 32.684331 -5.855040 12.889519 -14.612745 -5.398964
Spine 6.771195 12.776601 -3.069980
Head 14.296010 -6.887321 6.271870
LeftShoulder -11.315375 -8.278056 30.857850
LeftArm -1.349375 -28.276983 -79.552285
LeftForeArm -47.005181 -0.000000 110.085489
LeftHand 11.322807 -0.000000 -46.449737
LeftHandThumb1 -26.253704 0.000000 33.147579
RightShoulder -12.455175 -10.040556 -22.958915
RightArm 22.173325 -34.209717 85.991988
RightForeArm -19.752186 0.000000 24.800323
RightHand 17.715671 0.000000 1.331298
RightHandThumb1 -24.326973 -0.000000 -32.862282
LeftUpLeg -6.074303 5.135330 -2.792720
LeftLeg -4.693597 -0.000000 0.000000
LeftFoot -10.526045 9.261993 -16.501808
LeftToeBase 22.665967 -0.000000 -0.000000
RightUpLeg -14.219588 2.842391 7.688530
RightLeg 15.280559 -0.000000 -0.000000
RightFoot -20.428709 -2.971125 26.793173
RightToeBase 5.559969 -0.000000 -0.000000
3847
root 4.941031 32.663652 -5.826294 12.553592 -14.134751 -5.119338
Spine 6.816435 12.738064 -3.091296
Head 14.634033 -7.298969 6.185776
LeftShoulder -11.387374 -8.243056 30.811293
LeftArm -1.258528 -28.079159 -79.765077
LeftForeArm -46.773362 -0.000000 110.059992
LeftHand 11.308822 -0.000000 -46.331236
LeftHandThumb1 -26.253704 0.000000 33.147579
RightShoulder -12.509763 -10.319204 -22.947864
RightArm 22.241451 -34.424369 85.918299
RightForeArm -19.996849 -0.000000 24.909925
RightHand 17.734971 -0.000000 0.784486
RightHandThumb1 -24.326973 -0.000000 -32.862282
LeftUpLeg -5.870435 5.135984 -2.970987
LeftLeg -4.554872 -0.000000 0.000000
LeftFoot -10.629349 8.774805 -16.737410
LeftToeBase 23.260443 -0.000000 -0.000000
RightUpLeg -13.949996 2.853929 7.661241
RightLeg 14.466766 -0.000000 -0.000000
RightFoot -20.448383 -2.436900 27.013856
RightToeBase 5.602240 -0.000000 -0.000000
3848
root 4.916666 32.644366 -5.798601 12.219290 -13.701469 -4.782385
Spine 6.845402 12.715088 -3.221561
Head 14.965792 -7.525163 6.158081
LeftShoulder -11.449172 -8.070225 30.749071
LeftArm -1.046413 -27.925579 -79.979675
LeftForeArm -46.599994 -0.000000 110.069625
LeftHand 11.243579 -0.000000 -46.441881
LeftHandThumb1 -26.253704 0.000000 33.147579
RightShoulder -12.551449 -10.437741 -22.928234
RightArm 22.162955 -34.563546 85.933952
RightForeArm -19.966423 -0.000000 25.031740
RightHand 17.724729 -0.000000 0.744073
RightHandThumb1 -24.326973 -0.000000 -32.862282
LeftUpLeg -5.645025 5.028519 -3.190162
LeftLeg -4.455061 -0.000000 0.000000
LeftFoot -10.550280 8.414780 -16.790173
LeftToeBase 23.275109 -0.000000 -0.000000
RightUpLeg -13.723455 3.031439 7.530483
RightLeg 13.807605 -0.000000 -0.000000
RightFoot -20.627494 -2.148305 27.170342
RightToeBase 5.246721 -0.000000 -0.000000
3849
root 4.892868 32.622924 -5.771627 11.892572 -13.284082 -4.457799
Spine 6.874524 12.684372 -3.332180
Head 15.279082 -7.763840 6.078107
LeftShoulder -11.561049 -7.924416 30.688420
LeftArm -0.844219 -27.749554 -80.181227
LeftForeArm -46.231158 0.000000 110.014498
LeftHand 11.404522 0.000000 -46.578748
LeftHandThumb1 -26.253704 0.000000 33.147579
RightShoulder -12.614126 -10.598196 -22.941815
RightArm 22.151171 -34.685567 85.989734
RightForeArm -19.949842 -0.000000 25.100978
RightHand 17.764509 -0.000000 0.768195
RightHandThumb1 -24.326973 -0.000000 -32.862282
LeftUpLeg -5.405791 5.043446 -3.428597
LeftLeg -4.422988 -0.000000 0.000000
LeftFoot -10.606391 8.017183 -17.156087
LeftToeBase 24.058979 -0.000000 -0.000000
RightUpLeg -13.517130 3.134861 7.406608
RightLeg 13.230712 -0.000000 -0.000000
RightFoot -20.720995 -2.113570 26.687496
RightToeBase 4.598582 -0.000000 -0.000000
